<svg xmlns="http://www.w3.org/2000/svg" xmlns:xlink="http://www.w3.org/1999/xlink" width="793" zoomAndPan="magnify" viewBox="0 0 595.5 842.249979" height="1122" preserveAspectRatio="xMidYMid meet" version="1.0"><defs><clipPath id="a64024c514"><path d="M 0.015625 0 L 594.984375 0 L 594.984375 841.5 L 0.015625 841.5 Z M 0.015625 0 " clip-rule="nonzero"/></clipPath></defs><g clip-path="url(#a64024c514)"><path fill="#ffffff" d="M 0.015625 0 L 594.984375 0 L 594.984375 841.5 L 0.015625 841.5 Z M 0.015625 0 " fill-opacity="1" fill-rule="nonzero"/><path fill="#ffffff" d="M 0.015625 0 L 594.984375 0 L 594.984375 841.5 L 0.015625 841.5 Z M 0.015625 0 " fill-opacity="1" fill-rule="nonzero"/></g><path fill="#000000" d="M 394.050781 741.171875 C 397.5625 752.050781 406.558594 760.261719 417.714844 762.800781 C 431.429688 765.929688 451.46875 773.242188 471.179688 790.339844 C 479.355469 797.4375 474.308594 810.894531 463.484375 810.894531 L 339.285156 810.894531 C 324.914062 810.894531 313.648438 798.53125 314.964844 784.234375 L 320.597656 723.121094 Z M 108.394531 677.5 L 87 658.316406 C 80.160156 652.191406 69.773438 652.300781 63.0625 658.59375 L 9.539062 708.824219 C 3.394531 714.601562 2.171875 723.910156 6.613281 731.078125 L 51.03125 802.519531 C 54.265625 807.710938 59.933594 810.875 71.75 810.875 L 131.578125 810.875 C 142.148438 810.875 148.765625 799.191406 143.042969 790.304688 C 133.1875 774.980469 116.476562 761.941406 106.765625 755.160156 C 102.011719 751.832031 99.160156 746.417969 99.160156 740.621094 L 99.160156 719.683594 C 99.160156 713.90625 101.972656 708.492188 106.710938 705.183594 C 116.054688 698.65625 116.878906 685.125 108.394531 677.5 Z M 108.394531 677.5 " fill-opacity="1" fill-rule="nonzero"/><path fill="#37a852" d="M 117.535156 390.707031 L 50.703125 390.707031 C 41.539062 390.707031 34.132812 383.28125 34.132812 374.140625 L 34.132812 268.007812 C 34.132812 258.847656 41.558594 251.441406 50.703125 251.441406 L 117.535156 251.441406 Z M 171.441406 136.078125 L 171.441406 126.972656 C 171.441406 122.035156 167.4375 118.011719 162.480469 118.011719 L 104.84375 118.011719 C 99.90625 118.011719 95.886719 122.015625 95.886719 126.972656 L 95.886719 136.078125 C 95.886719 141.015625 99.890625 145.039062 104.84375 145.039062 L 162.5 145.039062 C 167.4375 145.019531 171.441406 141.015625 171.441406 136.078125 Z M 171.441406 136.078125 " fill-opacity="1" fill-rule="nonzero"/><path fill="#ffffff" d="M 156.519531 223.246094 L 110.824219 223.246094 C 89.027344 223.246094 71.363281 205.582031 71.363281 183.785156 L 71.363281 182.542969 C 71.363281 160.746094 89.027344 143.082031 110.824219 143.082031 L 156.503906 143.082031 C 178.300781 143.082031 195.964844 160.746094 195.964844 182.542969 L 195.964844 183.785156 C 195.964844 205.582031 178.300781 223.246094 156.519531 223.246094 Z M 156.519531 223.246094 " fill-opacity="1" fill-rule="nonzero"/><path fill="#000000" d="M 197.792969 183.785156 L 197.792969 182.542969 C 197.792969 159.777344 179.269531 141.253906 156.503906 141.253906 L 110.824219 141.253906 C 88.058594 141.253906 69.535156 159.777344 69.535156 182.542969 L 69.535156 183.785156 C 69.535156 204.742188 85.242188 222.09375 105.503906 224.726562 L 105.503906 271.996094 C 89.011719 276 76.667969 290.882812 76.667969 308.566406 L 76.667969 388.21875 C 76.667969 404.714844 90.035156 418.082031 106.527344 418.082031 L 190.695312 418.082031 L 190.695312 308.566406 C 190.695312 290.882812 178.335938 276 161.859375 271.996094 L 161.859375 224.726562 C 182.101562 222.09375 197.792969 204.757812 197.792969 183.785156 Z M 73.191406 183.785156 L 73.191406 182.542969 C 73.191406 161.789062 90.070312 144.910156 110.824219 144.910156 L 156.503906 144.910156 C 177.257812 144.910156 194.132812 161.789062 194.132812 182.542969 L 194.132812 183.785156 C 194.132812 204.539062 177.257812 221.417969 156.503906 221.417969 L 110.824219 221.417969 C 90.070312 221.417969 73.191406 204.539062 73.191406 183.785156 Z M 73.191406 183.785156 " fill-opacity="1" fill-rule="nonzero"/><path fill="#37a852" d="M 282.785156 152.570312 C 277.480469 141.726562 282.015625 128.527344 292.859375 123.222656 L 294.121094 122.601562 C 304.964844 117.296875 318.167969 121.832031 323.46875 132.675781 L 327.472656 140.867188 C 332.777344 151.710938 328.242188 164.914062 317.398438 170.21875 L 316.136719 170.839844 C 305.292969 176.140625 292.089844 171.605469 286.789062 160.761719 Z M 404.640625 730.746094 L 307.378906 382.605469 C 306.609375 379.84375 306.71875 376.902344 307.707031 374.195312 C 316.996094 348.796875 360.679688 210.996094 237.855469 157.453125 C 234.710938 156.082031 231.179688 155.9375 227.925781 157.015625 C 213.792969 161.734375 174.019531 179.011719 145.859375 230.414062 C 111.082031 293.902344 93.417969 342.265625 169.757812 360.480469 C 169.757812 360.480469 140.558594 413.636719 155.257812 525.070312 C 155.789062 529.09375 154.492188 533.132812 151.730469 536.097656 C 136.71875 552.207031 86.339844 606.84375 47.152344 655.445312 C 42.894531 660.75 42.5625 668.175781 46.292969 673.859375 C 55.765625 688.289062 76.210938 714.800781 105.632812 727.839844 C 109.363281 729.484375 113.714844 728.554688 116.402344 725.5 L 204.171875 625.386719 C 214.832031 613.390625 224.066406 600.1875 231.675781 586.054688 L 247 557.546875 L 315.972656 736.890625 C 317.636719 741.207031 321.367188 744.40625 325.902344 745.375 C 339.339844 748.210938 368.945312 753.109375 394.398438 747.828125 C 402.117188 746.21875 406.742188 738.316406 404.640625 730.746094 Z M 404.640625 730.746094 " fill-opacity="1" fill-rule="nonzero"/><path fill="#ffffff" d="M 277.699219 430.351562 L 112.085938 430.351562 C 100.019531 430.351562 90.144531 420.476562 90.144531 408.40625 L 90.144531 399.226562 C 90.144531 387.160156 100.019531 377.285156 112.085938 377.285156 L 277.683594 377.285156 C 289.75 377.285156 299.625 387.160156 299.625 399.226562 L 299.625 408.40625 C 299.644531 420.476562 289.769531 430.351562 277.699219 430.351562 Z M 277.699219 430.351562 " fill-opacity="1" fill-rule="nonzero"/><path fill="#000000" d="M 586.015625 470.632812 L 548.75 479.757812 L 548.804688 479.628906 L 332.722656 396.632812 L 360.058594 325.445312 C 362.179688 319.921875 359.402344 313.6875 353.878906 311.566406 L 335.957031 304.691406 C 330.4375 302.570312 324.199219 305.347656 322.078125 310.871094 L 299.421875 369.84375 C 298.730469 366.972656 296.699219 364.464844 293.738281 363.332031 L 288.160156 361.191406 C 283.367188 359.347656 278.011719 361.742188 276.164062 366.53125 L 272.726562 375.472656 L 112.085938 375.472656 C 98.976562 375.472656 88.316406 386.136719 88.316406 399.246094 L 88.316406 408.425781 C 88.316406 421.535156 98.976562 432.195312 112.085938 432.195312 L 251.589844 432.195312 C 251.535156 435.980469 253.765625 439.585938 257.511719 441.011719 L 263.089844 443.148438 C 267.878906 444.996094 273.238281 442.601562 275.085938 437.808594 L 277.242188 432.179688 L 277.683594 432.179688 C 278.46875 432.179688 279.234375 432.140625 280.003906 432.070312 L 530.132812 528.160156 L 530.1875 528.03125 L 551.765625 559.757812 C 554.507812 563.78125 560.636719 563.066406 562.390625 558.53125 L 577.730469 518.597656 L 593.074219 478.660156 C 594.828125 474.109375 590.734375 469.464844 586.015625 470.632812 Z M 91.972656 408.40625 L 91.972656 399.226562 C 91.972656 388.128906 100.988281 379.113281 112.085938 379.113281 L 271.335938 379.113281 L 252.355469 428.519531 L 112.085938 428.519531 C 101.003906 428.519531 91.972656 419.488281 91.972656 408.40625 Z M 176.214844 135.472656 C 176.214844 118.835938 189.691406 105.359375 206.332031 105.359375 C 222.972656 105.359375 236.449219 118.835938 236.449219 135.472656 C 236.449219 152.113281 222.972656 165.589844 206.332031 165.589844 C 189.691406 165.589844 176.214844 152.113281 176.214844 135.472656 Z M 176.214844 135.472656 " fill-opacity="1" fill-rule="nonzero"/><path fill="#ffffff" d="M 307.578125 73.375 L 307.175781 110.421875 C 307.175781 128.289062 299.386719 148.273438 283.863281 154.894531 C 283.714844 154.96875 283.550781 155.039062 283.40625 155.09375 L 279.164062 197.71875 L 222.441406 168.316406 L 226.28125 130.171875 C 220.832031 129.074219 215.347656 124.484375 212.273438 117.71875 C 207.847656 107.992188 210.042969 97.441406 217.210938 94.183594 C 219.203125 93.269531 221.378906 93.050781 223.574219 93.378906 C 224.816406 70.597656 243.835938 52.347656 266.929688 52.347656 L 286.550781 52.347656 C 299.699219 52.347656 307.578125 60.230469 307.578125 73.375 Z M 307.578125 73.375 " fill-opacity="1" fill-rule="nonzero"/><path fill="#000000" d="M 288.78125 50.609375 C 281.777344 46.058594 269.597656 47.390625 256.761719 51.671875 C 252.171875 52.730469 247.839844 54.488281 243.871094 56.828125 C 226.226562 64.984375 210.410156 76.777344 208.855469 84.054688 C 207.628906 89.816406 209.183594 93.691406 211.6875 96.289062 C 210.226562 98.152344 209.164062 100.457031 208.597656 103.125 C 207.59375 107.953125 208.304688 113.386719 210.609375 118.449219 C 213.535156 124.90625 218.691406 129.769531 224.304688 131.523438 L 223.921875 135.273438 L 221.289062 135.695312 C 219.789062 135.929688 218.765625 137.339844 219.019531 138.839844 C 219.242188 140.191406 220.410156 141.144531 221.726562 141.144531 C 221.875 141.144531 222.019531 141.125 222.167969 141.105469 L 223.355469 140.921875 L 220.613281 168.097656 C 220.503906 169.101562 221.253906 169.996094 222.257812 170.109375 C 223.28125 170.199219 224.160156 169.46875 224.269531 168.460938 L 227.105469 140.320312 L 286.804688 130.757812 C 287.921875 130.574219 288.816406 129.734375 289.054688 128.617188 C 289.292969 127.5 288.816406 126.367188 287.886719 125.746094 L 254.460938 103.785156 C 292.824219 92.410156 293.882812 57.066406 293.882812 57.066406 C 293.609375 56.277344 293.261719 55.546875 292.878906 54.851562 C 301.140625 56.9375 305.769531 63.410156 305.769531 73.304688 L 305.367188 110.367188 C 305.367188 126.421875 298.417969 146.648438 283.074219 153.210938 C 282.984375 153.265625 282.875 153.304688 282.785156 153.339844 C 282.125 153.578125 281.6875 154.179688 281.613281 154.875 L 277.371094 197.5 C 277.28125 198.503906 278.011719 199.402344 279.015625 199.492188 C 279.070312 199.492188 279.144531 199.492188 279.199219 199.492188 C 280.132812 199.492188 280.917969 198.78125 281.011719 197.847656 L 285.105469 156.339844 C 301.597656 148.933594 308.988281 128.015625 308.988281 110.441406 L 309.390625 73.375 C 309.40625 60.046875 301.5625 51.488281 288.78125 50.609375 Z M 278.945312 126.496094 L 227.652344 134.707031 L 228.089844 130.355469 C 228.183594 129.421875 227.5625 128.5625 226.628906 128.378906 C 221.527344 127.355469 216.664062 122.984375 213.917969 116.96875 C 211.945312 112.617188 211.324219 107.972656 212.164062 103.914062 C 212.96875 100.054688 215.015625 97.183594 217.960938 95.867188 C 219.550781 95.136719 221.34375 94.917969 223.28125 95.210938 C 223.320312 95.210938 223.355469 95.191406 223.390625 95.210938 C 227.597656 96.070312 232.113281 99.121094 234.5625 103.347656 C 235.898438 105.667969 238.585938 106.894531 241.238281 106.566406 C 243.285156 106.308594 245.226562 105.980469 247.109375 105.613281 Z M 268.738281 158.386719 C 268.738281 159.390625 267.917969 160.214844 266.910156 160.214844 C 259.011719 160.214844 251.242188 158.128906 244.402344 154.179688 C 243.523438 153.667969 243.230469 152.554688 243.726562 151.675781 C 244.238281 150.796875 245.351562 150.503906 246.230469 151 C 252.503906 154.621094 259.671875 156.539062 266.910156 156.539062 C 267.9375 156.558594 268.738281 157.378906 268.738281 158.386719 Z M 268.738281 158.386719 " fill-opacity="1" fill-rule="nonzero"/><path fill="#37a852" d="M 331.570312 83.964844 L 313.703125 83.980469 L 208.871094 84.074219 L 208.871094 81.914062 C 208.835938 53.480469 231.328125 30.203125 258.847656 30.167969 L 263.601562 30.167969 C 284.8125 30.148438 303.0625 43.953125 310.320312 63.300781 L 333.417969 76.539062 C 336.871094 78.515625 335.519531 83.945312 331.570312 83.964844 Z M 307.414062 106.289062 C 303.246094 106.179688 295.492188 107.148438 290.152344 114.921875 C 287.207031 119.199219 283.808594 123.148438 279.949219 126.625 L 257.675781 146.703125 L 283.863281 154.875 C 299.386719 148.257812 310.339844 132.804688 310.339844 114.941406 L 310.339844 109.269531 C 310.339844 107.660156 309.042969 106.328125 307.414062 106.289062 Z M 307.414062 106.289062 " fill-opacity="1" fill-rule="nonzero"/><path fill="#000000" d="M 283.863281 156.722656 C 283.679688 156.722656 283.496094 156.6875 283.3125 156.632812 L 257.128906 148.457031 C 256.507812 148.257812 256.03125 147.742188 255.886719 147.105469 C 255.738281 146.464844 255.957031 145.789062 256.453125 145.347656 L 278.722656 125.269531 C 282.382812 121.960938 285.726562 118.140625 288.652344 113.878906 C 294.488281 105.375 302.953125 104.316406 307.46875 104.445312 C 310.101562 104.515625 312.167969 106.636719 312.167969 109.289062 L 312.167969 114.957031 C 312.167969 133.097656 301.34375 149.425781 284.574219 156.574219 C 284.335938 156.667969 284.101562 156.722656 283.863281 156.722656 Z M 261.28125 145.933594 L 283.753906 152.957031 C 298.820312 146.246094 308.511719 131.414062 308.511719 114.976562 L 308.511719 109.308594 C 308.511719 108.667969 308 108.136719 307.359375 108.117188 C 303.59375 108.027344 296.515625 108.90625 291.652344 115.964844 C 288.5625 120.445312 285.03125 124.503906 281.15625 127.996094 Z M 261.28125 145.933594 " fill-opacity="1" fill-rule="nonzero"/><path fill="#37a852" d="M 298.800781 152.679688 L 294.796875 160.875 C 289.496094 171.714844 276.292969 176.25 265.449219 170.949219 L 264.1875 170.328125 C 253.34375 165.023438 248.808594 151.820312 254.113281 140.976562 L 258.117188 132.785156 C 263.417969 121.941406 276.621094 117.40625 287.464844 122.710938 L 288.726562 123.332031 C 299.570312 128.636719 304.105469 141.835938 298.800781 152.679688 Z M 298.800781 152.679688 " fill-opacity="1" fill-rule="nonzero"/><path fill="#ffffff" d="M 359.621094 371.835938 C 354.773438 374.945312 346.179688 371.324219 341.351562 368.820312 L 341.480469 369.054688 C 342.542969 371.03125 342.816406 373.40625 341.9375 375.65625 C 340.367188 379.714844 335.777344 381.765625 331.699219 380.191406 C 333.507812 380.886719 334.933594 382.203125 335.8125 383.8125 C 336.871094 385.789062 337.109375 388.183594 336.25 390.433594 C 334.679688 394.492188 330.089844 396.539062 326.011719 394.96875 C 330.070312 396.539062 332.117188 401.148438 330.5625 405.1875 C 328.992188 409.25 324.382812 411.296875 320.324219 409.722656 L 297.300781 400.875 C 297.175781 400.820312 297.066406 400.746094 296.9375 400.691406 L 296.570312 400.5625 C 276.019531 392.789062 276.347656 374.03125 276.347656 374.03125 C 276.347656 374.03125 274.007812 373.773438 270.203125 372.933594 C 267.277344 372.292969 265.722656 369.054688 267.09375 366.386719 L 275.617188 349.855469 L 285.398438 330.855469 C 286.660156 328.425781 289.695312 327.546875 292.074219 328.9375 C 299.203125 333.089844 304.582031 334.585938 304.582031 334.585938 C 319.832031 322.007812 338.574219 331.863281 339.449219 332.339844 C 339.617188 332.339844 350.660156 332.832031 350.660156 332.832031 C 360.113281 333.160156 363.296875 337.292969 363.058594 342.433594 C 362.820312 347.257812 358.285156 351.8125 350.679688 351.445312 C 363.332031 358.101562 366.074219 367.703125 359.621094 371.835938 Z M 359.621094 371.835938 " fill-opacity="1" fill-rule="nonzero"/><path fill="#000000" d="M 282.070312 91.003906 C 286.53125 83.855469 293.535156 85.261719 296.625 87 C 297.503906 87.492188 297.816406 88.609375 297.320312 89.484375 C 296.828125 90.363281 295.710938 90.675781 294.832031 90.179688 C 294.230469 89.851562 288.800781 87.089844 285.160156 92.921875 C 284.8125 93.472656 284.210938 93.78125 283.605469 93.78125 C 283.277344 93.78125 282.949219 93.691406 282.636719 93.507812 C 281.796875 92.996094 281.539062 91.863281 282.070312 91.003906 Z M 300.449219 153.484375 L 296.441406 161.679688 C 293.664062 167.363281 288.816406 171.625 282.800781 173.691406 C 282.546875 173.78125 282.289062 173.835938 282.035156 173.910156 C 280.242188 174.769531 278.085938 175.191406 275.671875 175.191406 C 273.804688 175.191406 271.8125 174.917969 269.746094 174.386719 C 267.992188 173.984375 266.289062 173.378906 264.644531 172.574219 L 263.382812 171.953125 C 263.035156 171.789062 262.707031 171.570312 262.359375 171.386719 C 262.320312 171.371094 262.285156 171.351562 262.265625 171.332031 C 261.226562 170.746094 260.21875 170.125 259.304688 169.394531 C 255.207031 166.359375 252.484375 162.648438 251.699219 159.082031 C 251.605469 158.824219 251.476562 158.570312 251.386719 158.296875 C 249.320312 152.277344 249.703125 145.824219 252.484375 140.136719 L 256.488281 131.945312 C 259.269531 126.257812 264.113281 121.996094 270.128906 119.929688 C 276.144531 117.863281 282.601562 118.25 288.289062 121.027344 L 289.550781 121.648438 C 295.234375 124.429688 299.496094 129.277344 301.5625 135.292969 C 303.609375 141.363281 303.226562 147.800781 300.449219 153.484375 Z M 255.152344 157.984375 C 256.46875 161.332031 258.589844 164.203125 261.335938 166.378906 C 262.613281 167.328125 264.039062 168.222656 265.613281 168.992188 C 267.1875 169.761719 268.757812 170.34375 270.3125 170.765625 C 273.714844 171.589844 277.28125 171.515625 280.71875 170.492188 C 281.667969 169.980469 282.398438 169.304688 282.820312 168.425781 C 284.738281 164.492188 280.09375 158.113281 272.691406 154.492188 C 269.179688 152.773438 265.578125 151.929688 262.542969 151.929688 C 259.160156 151.929688 256.488281 152.972656 255.484375 155.058594 C 255.0625 155.9375 254.988281 156.921875 255.152344 157.984375 Z M 298.089844 136.515625 C 296.332031 131.414062 292.730469 127.320312 287.921875 124.960938 L 286.660156 124.339844 C 281.851562 121.980469 276.402344 121.648438 271.300781 123.40625 C 266.199219 125.160156 262.101562 128.761719 259.742188 133.574219 L 255.738281 141.765625 C 254.257812 144.78125 253.582031 148.054688 253.726562 151.347656 C 257.695312 147.378906 266.070312 147.175781 274.316406 151.199219 C 282.546875 155.222656 287.519531 161.953125 286.84375 167.527344 C 289.511719 165.628906 291.6875 163.066406 293.167969 160.050781 L 297.175781 151.859375 C 299.515625 147.066406 299.84375 141.617188 298.089844 136.515625 Z M 290.445312 94.3125 C 287.445312 95.171875 285.710938 98.28125 286.570312 101.28125 C 287.429688 104.277344 290.535156 106.015625 293.535156 105.15625 C 296.535156 104.296875 298.273438 101.1875 297.414062 98.191406 C 296.550781 95.191406 293.445312 93.453125 290.445312 94.3125 Z M 261.445312 85.1875 C 282.507812 59.714844 309.683594 65.039062 309.957031 65.109375 C 310.945312 65.3125 311.914062 64.691406 312.113281 63.703125 C 312.316406 62.714844 311.691406 61.746094 310.707031 61.546875 C 310.414062 61.472656 281.136719 55.65625 258.628906 82.882812 C 257.988281 83.671875 258.097656 84.824219 258.867188 85.460938 C 259.214844 85.738281 259.617188 85.882812 260.035156 85.882812 C 260.566406 85.847656 261.078125 85.628906 261.445312 85.1875 Z M 356.164062 352.652344 C 357.902344 352.160156 359.457031 351.355469 360.808594 350.296875 C 363.277344 348.320312 364.777344 345.484375 364.921875 342.503906 C 365.070312 339.5625 364.246094 337.09375 362.472656 335.15625 C 360.113281 332.59375 356.164062 331.1875 350.789062 331.003906 C 343.382812 330.675781 340.859375 330.566406 339.964844 330.527344 C 337.039062 329.066406 319.246094 320.964844 304.234375 332.558594 C 302.476562 331.972656 298.199219 330.382812 293.023438 327.363281 C 291.449219 326.449219 289.566406 326.210938 287.8125 326.726562 C 286.714844 327.054688 285.765625 327.65625 284.976562 328.445312 L 206.074219 293.9375 L 214.722656 276.238281 C 215.164062 275.324219 214.796875 274.246094 213.882812 273.789062 C 212.96875 273.347656 211.871094 273.714844 211.433594 274.628906 L 201.941406 294.046875 C 201.722656 294.488281 201.703125 295.015625 201.871094 295.472656 C 202.035156 295.949219 202.398438 296.316406 202.855469 296.515625 L 282.984375 331.570312 L 266.035156 364.503906 L 169.851562 358.652344 C 168.84375 358.597656 167.96875 359.363281 167.914062 360.371094 C 167.859375 361.375 168.625 362.253906 169.632812 362.308594 L 264.808594 368.085938 C 264.734375 369.148438 264.917969 370.207031 265.375 371.195312 C 266.234375 373.007812 267.84375 374.304688 269.800781 374.726562 C 271.867188 375.183594 273.496094 375.457031 274.589844 375.640625 C 275.066406 380.59375 278.027344 395.515625 295.929688 402.28125 L 296.152344 402.355469 C 296.296875 402.445312 296.460938 402.519531 296.625 402.574219 L 319.628906 411.425781 C 320.761719 411.863281 321.953125 412.082031 323.121094 412.082031 C 324.457031 412.082031 325.808594 411.808594 327.070312 411.242188 C 329.46875 410.179688 331.296875 408.261719 332.226562 405.847656 C 333.160156 403.433594 333.085938 400.78125 332.027344 398.40625 C 331.808594 397.910156 331.550781 397.453125 331.257812 397.015625 C 334.203125 396.246094 336.726562 394.125 337.898438 391.089844 C 338.921875 388.4375 338.738281 385.476562 337.367188 382.953125 C 337.238281 382.714844 337.09375 382.476562 336.945312 382.238281 C 339.890625 381.472656 342.429688 379.351562 343.582031 376.316406 C 344.09375 375 344.296875 373.609375 344.207031 372.238281 C 349.78125 374.632812 356.199219 376.167969 360.554688 373.390625 C 363.40625 371.5625 364.90625 368.78125 364.757812 365.527344 C 364.628906 361.101562 361.46875 356.492188 356.164062 352.652344 Z M 358.632812 370.300781 C 355.632812 372.21875 349.636719 371.085938 342.195312 367.191406 C 341.480469 366.824219 340.601562 366.953125 340.054688 367.519531 C 339.488281 368.085938 339.359375 368.964844 339.742188 369.679688 L 339.871094 369.914062 C 340.730469 371.507812 340.859375 373.351562 340.238281 374.980469 C 339.03125 378.109375 335.5 379.679688 332.375 378.472656 C 331.441406 378.109375 330.382812 378.582031 330.015625 379.515625 C 329.648438 380.464844 330.125 381.507812 331.058594 381.875 C 332.394531 382.386719 333.527344 383.375 334.203125 384.652344 C 335.0625 386.246094 335.191406 388.089844 334.53125 389.738281 C 333.324219 392.863281 329.816406 394.4375 326.667969 393.230469 C 325.738281 392.863281 324.675781 393.339844 324.308594 394.273438 C 324.238281 394.492188 324.183594 394.710938 324.183594 394.929688 C 324.183594 395.660156 324.621094 396.355469 325.351562 396.632812 C 326.871094 397.214844 328.058594 398.351562 328.71875 399.847656 C 329.375 401.347656 329.429688 402.996094 328.84375 404.492188 C 328.261719 406.011719 327.125 407.199219 325.628906 407.859375 C 324.128906 408.515625 322.480469 408.570312 320.984375 407.988281 L 297.980469 399.136719 C 297.941406 399.117188 297.777344 399.027344 297.742188 399.007812 C 297.6875 398.972656 297.632812 398.953125 297.558594 398.933594 L 297.210938 398.808594 C 278.15625 391.601562 278.15625 374.726562 278.175781 374.011719 C 278.195312 373.0625 277.480469 372.273438 276.546875 372.164062 C 276.53125 372.164062 274.226562 371.910156 270.605469 371.105469 C 269.765625 370.921875 269.070312 370.371094 268.703125 369.585938 C 268.339844 368.820312 268.355469 367.941406 268.738281 367.191406 L 287.042969 331.660156 C 287.410156 330.929688 288.050781 330.417969 288.835938 330.179688 C 289.109375 330.109375 289.402344 330.050781 289.675781 330.050781 C 290.207031 330.050781 290.71875 330.199219 291.175781 330.453125 C 298.417969 334.679688 303.886719 336.234375 304.125 336.289062 C 304.691406 336.453125 305.3125 336.324219 305.769531 335.941406 C 320.105469 324.128906 337.859375 333.472656 338.609375 333.875 C 338.867188 334.003906 339.160156 334.09375 339.449219 334.09375 C 339.910156 334.113281 350.625 334.585938 350.640625 334.585938 C 355.03125 334.734375 358.101562 335.738281 359.785156 337.566406 C 360.863281 338.738281 361.375 340.328125 361.285156 342.269531 C 361.191406 344.1875 360.1875 346.054688 358.542969 347.386719 C 357.207031 348.449219 354.8125 349.691406 351.042969 349.546875 L 331.589844 342.726562 C 330.636719 342.378906 329.59375 342.890625 329.265625 343.839844 C 328.9375 344.789062 329.429688 345.832031 330.382812 346.164062 L 349.964844 353.039062 C 358.011719 357.316406 361.027344 362.34375 361.175781 365.617188 C 361.230469 367.613281 360.386719 369.183594 358.632812 370.300781 Z M 113.914062 377.285156 L 113.914062 430.351562 C 113.914062 431.355469 113.09375 432.179688 112.085938 432.179688 C 111.082031 432.179688 110.257812 431.355469 110.257812 430.351562 L 110.257812 377.285156 C 110.257812 376.277344 111.082031 375.457031 112.085938 375.457031 C 113.09375 375.457031 113.914062 376.277344 113.914062 377.285156 Z M 136.789062 377.285156 L 136.789062 430.351562 C 136.789062 431.355469 135.96875 432.179688 134.960938 432.179688 C 133.957031 432.179688 133.132812 431.355469 133.132812 430.351562 L 133.132812 377.285156 C 133.132812 376.277344 133.957031 375.457031 134.960938 375.457031 C 135.96875 375.457031 136.789062 376.277344 136.789062 377.285156 Z M 159.664062 377.285156 L 159.664062 430.351562 C 159.664062 431.355469 158.84375 432.179688 157.835938 432.179688 C 156.832031 432.179688 156.007812 431.355469 156.007812 430.351562 L 156.007812 377.285156 C 156.007812 376.277344 156.832031 375.457031 157.835938 375.457031 C 158.84375 375.457031 159.664062 376.277344 159.664062 377.285156 Z M 182.542969 377.285156 L 182.542969 430.351562 C 182.542969 431.355469 181.71875 432.179688 180.710938 432.179688 C 179.707031 432.179688 178.882812 431.355469 178.882812 430.351562 L 178.882812 377.285156 C 178.882812 376.277344 179.707031 375.457031 180.710938 375.457031 C 181.71875 375.457031 182.542969 376.277344 182.542969 377.285156 Z M 205.417969 377.285156 L 205.417969 430.351562 C 205.417969 431.355469 204.59375 432.179688 203.589844 432.179688 C 202.582031 432.179688 201.757812 431.355469 201.757812 430.351562 L 201.757812 377.285156 C 201.757812 376.277344 202.582031 375.457031 203.589844 375.457031 C 204.59375 375.457031 205.417969 376.277344 205.417969 377.285156 Z M 226.480469 432.179688 C 225.476562 432.179688 224.652344 431.355469 224.652344 430.351562 L 224.652344 377.285156 C 224.652344 376.277344 225.476562 375.457031 226.480469 375.457031 C 227.488281 375.457031 228.308594 376.277344 228.308594 377.285156 L 228.308594 430.351562 C 228.308594 431.355469 227.488281 432.179688 226.480469 432.179688 Z M 249.355469 432.179688 C 248.351562 432.179688 247.527344 431.355469 247.527344 430.351562 L 247.527344 377.285156 C 247.527344 376.277344 248.351562 375.457031 249.355469 375.457031 C 250.363281 375.457031 251.1875 376.277344 251.1875 377.285156 L 251.1875 430.351562 C 251.1875 431.355469 250.363281 432.179688 249.355469 432.179688 Z M 320.304688 743 C 320.671875 743.949219 320.195312 744.992188 319.246094 745.359375 C 319.027344 745.429688 318.804688 745.484375 318.605469 745.484375 C 317.875 745.484375 317.179688 745.027344 316.90625 744.296875 L 219.789062 488.445312 C 219.421875 487.492188 219.898438 486.449219 220.851562 486.085938 C 221.800781 485.71875 222.84375 486.195312 223.207031 487.144531 Z M 73.578125 275.414062 C 73.578125 277.425781 71.929688 279.070312 69.917969 279.070312 L 49.074219 279.070312 C 47.0625 279.070312 45.417969 277.425781 45.417969 275.414062 C 45.417969 273.402344 47.0625 271.757812 49.074219 271.757812 L 69.917969 271.757812 C 71.929688 271.757812 73.578125 273.402344 73.578125 275.414062 Z M 73.578125 291.671875 C 73.578125 293.683594 71.929688 295.328125 69.917969 295.328125 L 49.074219 295.328125 C 47.0625 295.328125 45.417969 293.683594 45.417969 291.671875 C 45.417969 289.660156 47.0625 288.015625 49.074219 288.015625 L 69.917969 288.015625 C 71.929688 288.015625 73.578125 289.640625 73.578125 291.671875 Z M 73.578125 307.910156 C 73.578125 309.921875 71.929688 311.566406 69.917969 311.566406 L 49.074219 311.566406 C 47.0625 311.566406 45.417969 309.921875 45.417969 307.910156 C 45.417969 305.898438 47.0625 304.25 49.074219 304.25 L 69.917969 304.25 C 71.929688 304.25 73.578125 305.898438 73.578125 307.910156 Z M 73.578125 324.164062 C 73.578125 326.175781 71.929688 327.820312 69.917969 327.820312 L 49.074219 327.820312 C 47.0625 327.820312 45.417969 326.175781 45.417969 324.164062 C 45.417969 322.152344 47.0625 320.507812 49.074219 320.507812 L 69.917969 320.507812 C 71.929688 320.507812 73.578125 322.136719 73.578125 324.164062 Z M 73.578125 340.402344 C 73.578125 342.414062 71.929688 344.058594 69.917969 344.058594 L 49.074219 344.058594 C 47.0625 344.058594 45.417969 342.414062 45.417969 340.402344 C 45.417969 338.390625 47.0625 336.746094 49.074219 336.746094 L 69.917969 336.746094 C 71.929688 336.746094 73.578125 338.390625 73.578125 340.402344 Z M 73.578125 356.660156 C 73.578125 358.667969 71.929688 360.316406 69.917969 360.316406 L 49.074219 360.316406 C 47.0625 360.316406 45.417969 358.667969 45.417969 356.660156 C 45.417969 354.648438 47.0625 353 49.074219 353 L 69.917969 353 C 71.929688 353 73.578125 354.628906 73.578125 356.660156 Z M 212.675781 203.625 L 215.308594 175.15625 C 215.402344 174.148438 216.277344 173.398438 217.300781 173.507812 C 218.308594 173.601562 219.039062 174.496094 218.949219 175.5 L 216.625 200.664062 C 223.976562 197.132812 243.105469 189.617188 258.554688 198.011719 L 277.371094 208.761719 C 278.25 209.257812 278.558594 210.371094 278.046875 211.25 C 277.71875 211.835938 277.097656 212.164062 276.457031 212.164062 C 276.144531 212.164062 275.835938 212.089844 275.542969 211.925781 L 256.761719 201.191406 C 239.445312 191.777344 215.636719 205.253906 215.402344 205.398438 C 214.816406 205.746094 214.085938 205.726562 213.5 205.363281 C 212.933594 204.960938 212.601562 204.300781 212.675781 203.625 Z M 249.6875 241.238281 C 247.820312 243.285156 246.890625 246.03125 247.125 248.789062 L 250.855469 291.46875 C 251.3125 296.625 255.554688 300.503906 260.730469 300.503906 L 286.53125 300.503906 C 289.292969 300.503906 291.964844 299.332031 293.828125 297.285156 C 295.691406 295.238281 296.625 292.492188 296.386719 289.734375 L 292.65625 247.054688 C 292.199219 241.898438 287.957031 238.019531 282.785156 238.019531 L 256.984375 238.019531 C 254.222656 238.039062 251.570312 239.210938 249.6875 241.238281 Z M 289.019531 247.402344 L 292.75 290.082031 C 292.894531 291.855469 292.328125 293.535156 291.121094 294.851562 C 289.914062 296.167969 288.289062 296.882812 286.515625 296.882812 L 260.710938 296.882812 C 257.441406 296.882812 254.769531 294.433594 254.496094 291.175781 L 250.765625 248.5 C 250.617188 246.726562 251.1875 245.042969 252.394531 243.726562 C 253.597656 242.410156 255.226562 241.695312 257 241.695312 L 282.800781 241.695312 C 286.058594 241.695312 288.726562 244.144531 289.019531 247.402344 Z M 289.019531 247.402344 " fill-opacity="1" fill-rule="nonzero"/></svg>